<svg xmlns="http://www.w3.org/2000/svg" width="384" viewBox="0 0 384 384" height="384" version="1.0"><path fill="#FFF" d="M-38.4 -38.4H422.40000000000003V422.40000000000003H-38.4z"/><path fill="#FFF" d="M-38.4 -38.4H422.40000000000003V422.40000000000003H-38.4z"/><path fill="#FFF" d="M-38.4 -38.4H422.40000000000003V422.40000000000003H-38.4z"/><g fill="#FF914D"><g><g><path d="M 5.78125 46.9375 C -0.75 47.101562 -6.144531 45.929688 -10.40625 43.421875 C -14.675781 40.910156 -18.023438 37.269531 -20.453125 32.5 C -22.878906 27.738281 -24.425781 21.96875 -25.09375 15.1875 C -25.769531 8.40625 -25.773438 1 -25.109375 -7.03125 C -24.265625 -13.21875 -22.753906 -19.660156 -20.578125 -26.359375 C -18.742188 -32.046875 -15.941406 -38.316406 -12.171875 -45.171875 C -8.410156 -52.035156 -3.347656 -58.734375 3.015625 -65.265625 C 4.347656 -64.929688 5.429688 -64.554688 6.265625 -64.140625 C 7.109375 -63.722656 7.78125 -63.257812 8.28125 -62.75 C 8.78125 -62.082031 9.113281 -61.5 9.28125 -61 C 9.625 -59.15625 9.125 -57.0625 7.78125 -54.71875 C 6.445312 -52.375 5.109375 -49.863281 3.765625 -47.1875 C 0.0859375 -39.488281 -2.671875 -32.207031 -4.515625 -25.34375 C -6.359375 -18.488281 -7.53125 -12.132812 -8.03125 -6.28125 C -8.363281 -1.257812 -8.320312 3.300781 -7.90625 7.40625 C -7.488281 11.507812 -6.859375 15.023438 -6.015625 17.953125 C -5.179688 20.878906 -4.257812 23.132812 -3.25 24.71875 C -2.25 26.3125 -1.332031 27.109375 -0.5 27.109375 C 0.332031 27.109375 1.207031 26.519531 2.125 25.34375 C 3.050781 24.175781 3.929688 22.753906 4.765625 21.078125 C 5.773438 19.410156 6.945312 16.859375 8.28125 13.421875 C 9.625 9.992188 11.046875 6.019531 12.546875 1.5 C 14.054688 -3.007812 15.519531 -7.898438 16.9375 -13.171875 C 18.363281 -18.441406 19.660156 -23.757812 20.828125 -29.125 C 23.171875 -39.832031 25.679688 -51.921875 28.359375 -65.390625 C 31.035156 -78.859375 34.96875 -92.957031 40.15625 -107.6875 C 41.832031 -113.875 43.925781 -120.648438 46.4375 -128.015625 C 48.445312 -134.378906 51 -141.785156 54.09375 -150.234375 C 57.1875 -158.679688 60.742188 -167.84375 64.765625 -177.71875 C 64.765625 -178.5625 65.472656 -179.359375 66.890625 -180.109375 C 68.316406 -180.859375 69.953125 -181.65625 71.796875 -182.5 C 73.796875 -183.332031 76.050781 -184.164062 78.5625 -185 C 81.914062 -186.175781 84.550781 -186.847656 86.46875 -187.015625 C 88.394531 -187.179688 89.859375 -186.925781 90.859375 -186.25 C 91.867188 -185.582031 92.539062 -184.703125 92.875 -183.609375 C 93.207031 -182.523438 93.375 -181.316406 93.375 -179.984375 C 93.707031 -174.460938 93.914062 -169.273438 94 -164.421875 C 94.09375 -159.566406 94.222656 -155.300781 94.390625 -151.625 C 94.554688 -147.269531 94.640625 -143.332031 94.640625 -139.8125 C 94.804688 -135.132812 94.550781 -128.90625 93.875 -121.125 C 93.207031 -113.34375 92.5 -105.179688 91.75 -96.640625 C 91 -88.109375 90.328125 -79.785156 89.734375 -71.671875 C 89.148438 -63.554688 89.023438 -56.816406 89.359375 -51.453125 C 89.359375 -48.609375 89.484375 -45.972656 89.734375 -43.546875 C 89.984375 -41.117188 90.28125 -38.734375 90.625 -36.390625 C 92.789062 -42.421875 95.210938 -48.738281 97.890625 -55.34375 C 100.578125 -61.957031 103.257812 -68.316406 105.9375 -74.421875 C 108.613281 -80.535156 111.117188 -86.226562 113.453125 -91.5 C 115.796875 -96.769531 117.640625 -101.160156 118.984375 -104.671875 C 120.992188 -109.359375 123.671875 -115.300781 127.015625 -122.5 C 130.359375 -129.695312 133.742188 -136.890625 137.171875 -144.078125 C 140.609375 -151.273438 143.789062 -157.882812 146.71875 -163.90625 C 149.644531 -169.9375 151.78125 -174.125 153.125 -176.46875 C 154.125 -178.144531 155.835938 -179.648438 158.265625 -180.984375 C 160.691406 -182.328125 163.285156 -183.5 166.046875 -184.5 C 168.804688 -185.5 171.398438 -186.207031 173.828125 -186.625 C 176.253906 -187.050781 177.890625 -187.097656 178.734375 -186.765625 C 180.898438 -186.253906 182.441406 -185.582031 183.359375 -184.75 C 184.285156 -183.914062 184.832031 -183.332031 185 -183 C 185.332031 -182.320312 185.582031 -181.1875 185.75 -179.59375 C 185.914062 -178.007812 185.832031 -175.546875 185.5 -172.203125 C 185.164062 -168.179688 184.203125 -162.070312 182.609375 -153.875 C 181.023438 -145.675781 179.101562 -136.347656 176.84375 -125.890625 C 174.582031 -115.429688 172.15625 -104.257812 169.5625 -92.375 C 166.96875 -80.488281 164.5 -68.8125 162.15625 -57.34375 C 159.8125 -45.882812 157.757812 -35.132812 156 -25.09375 C 154.25 -15.0625 153.125 -6.613281 152.625 0.25 C 152.289062 7.945312 152.789062 14.722656 154.125 20.578125 C 154.625 23.085938 155.375 25.515625 156.375 27.859375 C 157.382812 30.203125 158.722656 32.253906 160.390625 34.015625 C 162.066406 35.773438 164.078125 37.070312 166.421875 37.90625 C 168.765625 38.738281 171.53125 38.988281 174.71875 38.65625 C 170.53125 41.5 166.425781 43.585938 162.40625 44.921875 C 158.394531 46.265625 154.460938 46.9375 150.609375 46.9375 C 146.429688 47.101562 142.75 46.472656 139.5625 45.046875 C 136.382812 43.628906 133.707031 41.625 131.53125 39.03125 C 129.351562 36.4375 127.765625 33.335938 126.765625 29.734375 C 125.765625 26.140625 125.429688 22.171875 125.765625 17.828125 C 126.097656 13.804688 127.179688 7.195312 129.015625 -2 C 130.859375 -11.207031 133.078125 -21.625 135.671875 -33.25 C 138.265625 -44.882812 141.109375 -57.019531 144.203125 -69.65625 C 147.304688 -82.289062 150.238281 -94.171875 153 -105.296875 C 155.757812 -116.429688 158.144531 -126.015625 160.15625 -134.046875 C 162.164062 -142.078125 163.421875 -147.347656 163.921875 -149.859375 C 164.253906 -151.867188 164.546875 -153.75 164.796875 -155.5 C 165.046875 -157.257812 165.335938 -158.8125 165.671875 -160.15625 C 164.003906 -156.800781 161.957031 -152.78125 159.53125 -148.09375 C 157.101562 -143.414062 154.550781 -138.398438 151.875 -133.046875 C 149.195312 -127.691406 146.472656 -122.125 143.703125 -116.34375 C 140.941406 -110.570312 138.304688 -105.007812 135.796875 -99.65625 C 131.617188 -90.957031 127.519531 -82.046875 123.5 -72.921875 C 119.488281 -63.796875 115.890625 -55.132812 112.703125 -46.9375 C 109.523438 -38.738281 106.890625 -31.375 104.796875 -24.84375 C 102.703125 -18.320312 101.488281 -13.304688 101.15625 -9.796875 L 101.15625 -6.28125 C 101.15625 -5.269531 101.195312 -4.09375 101.28125 -2.75 C 101.363281 -1.414062 101.578125 -0.164062 101.921875 1 L 91.875 8.78125 C 90.363281 9.28125 89.066406 9.695312 87.984375 10.03125 C 86.898438 10.375 85.851562 10.546875 84.84375 10.546875 C 81 10.546875 78.070312 8.535156 76.0625 4.515625 C 74.050781 0.835938 72.207031 -6.351562 70.53125 -17.0625 C 68.863281 -27.78125 68.363281 -40.921875 69.03125 -56.484375 C 69.363281 -64.179688 69.90625 -71.960938 70.65625 -79.828125 C 71.414062 -87.691406 72.171875 -95.222656 72.921875 -102.421875 C 73.671875 -109.617188 74.378906 -116.351562 75.046875 -122.625 C 75.722656 -128.894531 76.0625 -134.289062 76.0625 -138.8125 C 76.226562 -142.15625 76.144531 -145.207031 75.8125 -147.96875 C 75.476562 -150.738281 75.140625 -153.296875 74.796875 -155.640625 C 73.296875 -151.785156 71.625 -146.550781 69.78125 -139.9375 C 67.9375 -133.332031 66.007812 -126.015625 64 -117.984375 C 62 -109.953125 59.953125 -101.5 57.859375 -92.625 C 55.765625 -83.757812 53.753906 -75.222656 51.828125 -67.015625 C 49.910156 -58.816406 48.113281 -51.242188 46.4375 -44.296875 C 44.757812 -37.359375 43.421875 -31.796875 42.421875 -27.609375 C 40.742188 -20.921875 39.066406 -13.304688 37.390625 -4.765625 C 35.722656 3.765625 33.632812 11.835938 31.125 19.453125 C 28.613281 27.066406 25.347656 33.507812 21.328125 38.78125 C 17.316406 44.050781 12.132812 46.769531 5.78125 46.9375 Z M 5.78125 46.9375" transform="translate(97.747 247.913)"/></g></g></g></svg>