<svg xmlns="http://www.w3.org/2000/svg" width="1440" viewBox="0 0 1440 750" height="750" version="1.0"><g fill="#FF914D"><g><g><path d="M 10.640625 86.484375 C -1.390625 86.796875 -11.332031 84.640625 -19.1875 80.015625 C -27.050781 75.390625 -33.21875 68.679688 -37.6875 59.890625 C -42.164062 51.109375 -45.019531 40.472656 -46.25 27.984375 C -47.476562 15.492188 -47.476562 1.847656 -46.25 -12.953125 C -44.707031 -24.359375 -41.929688 -36.226562 -37.921875 -48.5625 C -34.535156 -59.039062 -29.375 -70.601562 -22.4375 -83.25 C -15.5 -95.894531 -6.171875 -108.226562 5.546875 -120.25 C 8.015625 -119.632812 10.019531 -118.941406 11.5625 -118.171875 C 13.101562 -117.398438 14.335938 -116.550781 15.265625 -115.625 C 16.191406 -114.394531 16.804688 -113.316406 17.109375 -112.390625 C 17.722656 -108.992188 16.796875 -105.140625 14.328125 -100.828125 C 11.867188 -96.515625 9.40625 -91.890625 6.9375 -86.953125 C 0.15625 -72.765625 -4.925781 -59.347656 -8.3125 -46.703125 C -11.707031 -34.066406 -13.867188 -22.351562 -14.796875 -11.5625 C -15.410156 -2.3125 -15.332031 6.085938 -14.5625 13.640625 C -13.789062 21.191406 -12.632812 27.664062 -11.09375 33.0625 C -9.550781 38.457031 -7.851562 42.617188 -6 45.546875 C -4.15625 48.484375 -2.460938 49.953125 -0.921875 49.953125 C 0.617188 49.953125 2.234375 48.867188 3.921875 46.703125 C 5.617188 44.546875 7.238281 41.925781 8.78125 38.84375 C 10.632812 35.757812 12.796875 31.054688 15.265625 24.734375 C 17.734375 18.421875 20.351562 11.097656 23.125 2.765625 C 25.894531 -5.554688 28.59375 -14.570312 31.21875 -24.28125 C 33.84375 -33.988281 36.234375 -43.78125 38.390625 -53.65625 C 42.703125 -73.382812 47.320312 -95.660156 52.25 -120.484375 C 57.1875 -145.304688 64.4375 -171.285156 74 -198.421875 C 77.082031 -209.828125 80.9375 -222.3125 85.5625 -235.875 C 89.257812 -247.59375 93.960938 -261.238281 99.671875 -276.8125 C 105.378906 -292.382812 111.929688 -309.265625 119.328125 -327.453125 C 119.328125 -328.992188 120.632812 -330.457031 123.25 -331.84375 C 125.875 -333.238281 128.882812 -334.707031 132.28125 -336.25 C 135.976562 -337.789062 140.140625 -339.332031 144.765625 -340.875 C 150.929688 -343.03125 155.785156 -344.257812 159.328125 -344.5625 C 162.878906 -344.875 165.578125 -344.410156 167.421875 -343.171875 C 169.273438 -341.941406 170.507812 -340.320312 171.125 -338.3125 C 171.738281 -336.3125 172.046875 -334.082031 172.046875 -331.625 C 172.671875 -321.445312 173.054688 -311.882812 173.203125 -302.9375 C 173.359375 -294 173.59375 -286.140625 173.90625 -279.359375 C 174.207031 -271.335938 174.359375 -264.09375 174.359375 -257.625 C 174.671875 -248.988281 174.207031 -237.5 172.96875 -223.15625 C 171.738281 -208.820312 170.429688 -193.789062 169.046875 -178.0625 C 167.660156 -162.34375 166.425781 -147.003906 165.34375 -132.046875 C 164.269531 -117.085938 164.039062 -104.675781 164.65625 -94.8125 C 164.65625 -89.570312 164.882812 -84.710938 165.34375 -80.234375 C 165.8125 -75.765625 166.351562 -71.375 166.96875 -67.0625 C 170.976562 -78.164062 175.445312 -89.804688 180.375 -101.984375 C 185.3125 -114.160156 190.242188 -125.875 195.171875 -137.125 C 200.109375 -148.382812 204.734375 -158.867188 209.046875 -168.578125 C 213.367188 -178.296875 216.765625 -186.390625 219.234375 -192.859375 C 222.929688 -201.492188 227.863281 -212.441406 234.03125 -225.703125 C 240.195312 -238.960938 246.441406 -252.222656 252.765625 -265.484375 C 259.085938 -278.742188 264.945312 -290.921875 270.34375 -302.015625 C 275.738281 -313.117188 279.664062 -320.828125 282.125 -325.140625 C 283.976562 -328.222656 287.140625 -331 291.609375 -333.46875 C 296.078125 -335.9375 300.851562 -338.09375 305.9375 -339.9375 C 311.03125 -341.789062 315.8125 -343.101562 320.28125 -343.875 C 324.757812 -344.644531 327.769531 -344.722656 329.3125 -344.109375 C 333.3125 -343.179688 336.160156 -341.945312 337.859375 -340.40625 C 339.554688 -338.863281 340.5625 -337.785156 340.875 -337.171875 C 341.488281 -335.929688 341.945312 -333.847656 342.25 -330.921875 C 342.5625 -327.992188 342.410156 -323.445312 341.796875 -317.28125 C 341.179688 -309.882812 339.40625 -298.628906 336.46875 -283.515625 C 333.539062 -268.410156 329.992188 -251.222656 325.828125 -231.953125 C 321.671875 -212.679688 317.203125 -192.097656 312.421875 -170.203125 C 307.640625 -148.304688 303.09375 -126.796875 298.78125 -105.671875 C 294.46875 -84.554688 290.691406 -64.75 287.453125 -46.25 C 284.210938 -27.75 282.128906 -12.175781 281.203125 0.46875 C 280.585938 14.644531 281.515625 27.128906 283.984375 37.921875 C 284.910156 42.546875 286.296875 47.015625 288.140625 51.328125 C 289.992188 55.648438 292.460938 59.429688 295.546875 62.671875 C 298.628906 65.910156 302.328125 68.300781 306.640625 69.84375 C 310.960938 71.382812 316.050781 71.84375 321.90625 71.21875 C 314.195312 76.46875 306.640625 80.320312 299.234375 82.78125 C 291.835938 85.25 284.59375 86.484375 277.5 86.484375 C 269.789062 86.796875 263.007812 85.640625 257.15625 83.015625 C 251.300781 80.398438 246.367188 76.703125 242.359375 71.921875 C 238.347656 67.140625 235.414062 61.429688 233.5625 54.796875 C 231.71875 48.171875 231.101562 40.851562 231.71875 32.84375 C 232.332031 25.4375 234.332031 13.253906 237.71875 -3.703125 C 241.113281 -20.660156 245.203125 -39.851562 249.984375 -61.28125 C 254.765625 -82.707031 260.003906 -105.0625 265.703125 -128.34375 C 271.410156 -151.625 276.804688 -173.515625 281.890625 -194.015625 C 286.984375 -214.523438 291.378906 -232.179688 295.078125 -246.984375 C 298.773438 -261.785156 301.085938 -271.5 302.015625 -276.125 C 302.628906 -279.820312 303.164062 -283.285156 303.625 -286.515625 C 304.09375 -289.753906 304.632812 -292.609375 305.25 -295.078125 C 302.164062 -288.910156 298.390625 -281.507812 293.921875 -272.875 C 289.453125 -264.25 284.75 -255 279.8125 -245.125 C 274.882812 -235.257812 269.875 -225.007812 264.78125 -214.375 C 259.695312 -203.738281 254.84375 -193.484375 250.21875 -183.609375 C 242.507812 -167.578125 234.953125 -151.160156 227.546875 -134.359375 C 220.148438 -117.554688 213.519531 -101.597656 207.65625 -86.484375 C 201.800781 -71.378906 196.945312 -57.8125 193.09375 -45.78125 C 189.238281 -33.757812 187.003906 -24.507812 186.390625 -18.03125 L 186.390625 -11.5625 C 186.390625 -9.707031 186.46875 -7.546875 186.625 -5.078125 C 186.78125 -2.617188 187.164062 -0.3125 187.78125 1.84375 L 169.28125 16.1875 C 166.5 17.113281 164.109375 17.882812 162.109375 18.5 C 160.109375 19.113281 158.179688 19.421875 156.328125 19.421875 C 149.234375 19.421875 143.835938 15.722656 140.140625 8.328125 C 136.441406 1.546875 133.050781 -11.707031 129.96875 -31.4375 C 126.882812 -51.175781 125.957031 -75.382812 127.1875 -104.0625 C 127.800781 -118.25 128.800781 -132.585938 130.1875 -147.078125 C 131.582031 -161.566406 132.972656 -175.441406 134.359375 -188.703125 C 135.742188 -201.960938 137.050781 -214.375 138.28125 -225.9375 C 139.519531 -237.5 140.140625 -247.441406 140.140625 -255.765625 C 140.453125 -261.929688 140.296875 -267.554688 139.671875 -272.640625 C 139.054688 -277.734375 138.441406 -282.4375 137.828125 -286.75 C 135.054688 -279.664062 131.972656 -270.03125 128.578125 -257.84375 C 125.179688 -245.664062 121.632812 -232.175781 117.9375 -217.375 C 114.238281 -202.570312 110.460938 -187 106.609375 -170.65625 C 102.753906 -154.320312 99.050781 -138.597656 95.5 -123.484375 C 91.957031 -108.378906 88.644531 -94.425781 85.5625 -81.625 C 82.476562 -68.832031 80.007812 -58.582031 78.15625 -50.875 C 75.070312 -38.539062 71.988281 -24.507812 68.90625 -8.78125 C 65.820312 6.9375 61.96875 21.8125 57.34375 35.84375 C 52.71875 49.875 46.707031 61.742188 39.3125 71.453125 C 31.914062 81.171875 22.359375 86.179688 10.640625 86.484375 Z M 10.640625 86.484375" transform="translate(76.706 474.256)"/></g></g></g><g fill="#FF914D"><g><g><path d="M 209.515625 -96.203125 C 200.265625 -82.628906 189.78125 -69.445312 178.0625 -56.65625 C 166.34375 -43.863281 153.929688 -32.457031 140.828125 -22.4375 C 127.722656 -12.414062 114.3125 -4.320312 100.59375 1.84375 C 86.875 8.007812 73.539062 11.09375 60.59375 11.09375 C 53.800781 11.09375 46.472656 9.472656 38.609375 6.234375 C 30.753906 3.003906 23.585938 -2 17.109375 -8.78125 C 10.640625 -15.570312 5.476562 -24.363281 1.625 -35.15625 C -2.226562 -45.945312 -3.382812 -59.050781 -1.84375 -74.46875 C -0.613281 -87.101562 3.3125 -100.4375 9.9375 -114.46875 C 16.570312 -128.5 24.742188 -141.375 34.453125 -153.09375 C 44.171875 -164.8125 55.117188 -174.523438 67.296875 -182.234375 C 79.472656 -189.941406 91.726562 -193.796875 104.0625 -193.796875 C 115.78125 -193.796875 124.257812 -190.863281 129.5 -185 C 134.738281 -179.144531 137.050781 -171.898438 136.4375 -163.265625 C 135.507812 -153.703125 132.8125 -144.910156 128.34375 -136.890625 C 123.875 -128.878906 118.554688 -121.632812 112.390625 -115.15625 C 106.222656 -108.6875 99.671875 -102.832031 92.734375 -97.59375 C 85.796875 -92.351562 79.242188 -87.570312 73.078125 -83.25 C 66.296875 -78.625 59.820312 -74.226562 53.65625 -70.0625 C 47.488281 -65.90625 42.09375 -62.128906 37.46875 -58.734375 C 37.769531 -51.023438 39.15625 -44.550781 41.625 -39.3125 C 44.09375 -34.070312 47.175781 -29.832031 50.875 -26.59375 C 54.570312 -23.351562 58.8125 -21.039062 63.59375 -19.65625 C 68.375 -18.269531 73.226562 -17.578125 78.15625 -17.578125 C 88.644531 -17.578125 99.59375 -20.890625 111 -27.515625 C 122.40625 -34.148438 133.582031 -42.164062 144.53125 -51.5625 C 155.476562 -60.96875 165.65625 -70.757812 175.0625 -80.9375 C 184.46875 -91.113281 192.253906 -99.898438 198.421875 -107.296875 C 200.578125 -109.765625 202.8125 -111.226562 205.125 -111.6875 C 207.4375 -112.15625 209.285156 -111.847656 210.671875 -110.765625 C 212.054688 -109.691406 212.75 -107.84375 212.75 -105.21875 C 212.75 -102.601562 211.671875 -99.597656 209.515625 -96.203125 Z M 91.109375 -167.421875 C 87.410156 -167.421875 83.015625 -165.570312 77.921875 -161.875 C 72.835938 -158.175781 67.828125 -152.859375 62.890625 -145.921875 C 57.960938 -138.984375 53.335938 -130.503906 49.015625 -120.484375 C 44.703125 -110.460938 41.46875 -98.976562 39.3125 -86.03125 C 43.007812 -88.800781 47.015625 -91.648438 51.328125 -94.578125 C 55.648438 -97.515625 59.96875 -100.675781 64.28125 -104.0625 C 77.539062 -114.238281 86.789062 -123.179688 92.03125 -130.890625 C 97.28125 -138.597656 100.210938 -145.226562 100.828125 -150.78125 C 101.441406 -156.632812 100.820312 -160.867188 98.96875 -163.484375 C 97.125 -166.109375 94.503906 -167.421875 91.109375 -167.421875 Z M 91.109375 -167.421875" transform="translate(424.035 474.256)"/></g></g></g><g fill="#FF914D"><g><g><path d="M -17.578125 -2.3125 C -19.734375 1.082031 -22.117188 3.316406 -24.734375 4.390625 C -27.359375 5.472656 -29.671875 5.628906 -31.671875 4.859375 C -33.679688 4.085938 -34.992188 2.46875 -35.609375 0 C -36.222656 -2.46875 -35.609375 -5.550781 -33.765625 -9.25 C -32.835938 -11.101562 -30.753906 -15.265625 -27.515625 -21.734375 C -24.273438 -28.210938 -20.421875 -36 -15.953125 -45.09375 C -11.484375 -54.1875 -6.628906 -64.050781 -1.390625 -74.6875 C 3.847656 -85.332031 8.859375 -95.429688 13.640625 -104.984375 C 18.421875 -114.546875 22.816406 -123.101562 26.828125 -130.65625 C 30.835938 -138.207031 33.765625 -143.679688 35.609375 -147.078125 C 32.222656 -150.160156 29.910156 -152.394531 28.671875 -153.78125 C 27.441406 -155.164062 26.519531 -158.171875 25.90625 -162.796875 C 25.28125 -166.804688 26.203125 -172.046875 28.671875 -178.515625 C 31.140625 -184.992188 34.378906 -191.238281 38.390625 -197.25 C 42.398438 -203.269531 46.867188 -208.4375 51.796875 -212.75 C 56.734375 -217.070312 61.515625 -219.234375 66.140625 -219.234375 C 74.773438 -219.234375 80.863281 -216.457031 84.40625 -210.90625 C 87.957031 -205.351562 90.039062 -199.648438 90.65625 -193.796875 C 91.269531 -189.785156 90.957031 -184.695312 89.71875 -178.53125 C 88.488281 -172.363281 86.179688 -166.8125 82.796875 -161.875 C 83.710938 -161.257812 84.941406 -160.566406 86.484375 -159.796875 C 88.023438 -159.023438 90.492188 -158.640625 93.890625 -158.640625 C 98.828125 -158.640625 102.296875 -158.945312 104.296875 -159.5625 C 106.296875 -160.175781 109.457031 -160.484375 113.78125 -160.484375 C 119.019531 -160.484375 123.332031 -159.171875 126.71875 -156.546875 C 130.113281 -153.929688 132.890625 -150.695312 135.046875 -146.84375 C 137.210938 -142.988281 138.832031 -138.828125 139.90625 -134.359375 C 140.988281 -129.890625 141.679688 -125.804688 141.984375 -122.109375 C 142.910156 -114.398438 140.90625 -106.378906 135.96875 -98.046875 C 131.039062 -89.722656 125.03125 -80.628906 117.9375 -70.765625 C 113.625 -64.597656 109.304688 -57.660156 104.984375 -49.953125 C 100.671875 -42.242188 98.820312 -35.304688 99.4375 -29.140625 C 100.050781 -25.128906 101.128906 -21.890625 102.671875 -19.421875 C 104.210938 -16.953125 108.53125 -15.71875 115.625 -15.71875 C 120.863281 -15.71875 126.644531 -17.644531 132.96875 -21.5 C 139.289062 -25.351562 145.765625 -30.285156 152.390625 -36.296875 C 159.023438 -42.316406 165.578125 -48.945312 172.046875 -56.1875 C 178.523438 -63.4375 184.539062 -70.53125 190.09375 -77.46875 C 195.644531 -84.40625 200.347656 -90.648438 204.203125 -96.203125 C 208.054688 -101.753906 210.90625 -105.765625 212.75 -108.234375 C 214.289062 -110.691406 216.296875 -112.382812 218.765625 -113.3125 C 221.234375 -114.238281 223.390625 -114.238281 225.234375 -113.3125 C 227.085938 -112.382812 228.242188 -110.535156 228.703125 -107.765625 C 229.171875 -104.992188 228.015625 -101.296875 225.234375 -96.671875 C 223.390625 -93.585938 220.226562 -88.648438 215.75 -81.859375 C 211.28125 -75.078125 205.882812 -67.523438 199.5625 -59.203125 C 193.25 -50.878906 186.238281 -42.320312 178.53125 -33.53125 C 170.820312 -24.738281 162.726562 -16.71875 154.25 -9.46875 C 145.769531 -2.226562 137.289062 3.703125 128.8125 8.328125 C 120.332031 12.953125 112.238281 15.265625 104.53125 15.265625 C 96.507812 15.265625 89.878906 13.722656 84.640625 10.640625 C 79.398438 7.554688 75.160156 3.78125 71.921875 -0.6875 C 68.679688 -5.164062 66.367188 -10.101562 64.984375 -15.5 C 63.597656 -20.894531 63.054688 -25.90625 63.359375 -30.53125 C 63.671875 -34.226562 64.671875 -38.15625 66.359375 -42.3125 C 68.054688 -46.476562 70.0625 -50.796875 72.375 -55.265625 C 74.6875 -59.734375 77.15625 -64.203125 79.78125 -68.671875 C 82.40625 -73.148438 84.796875 -77.546875 86.953125 -81.859375 C 92.191406 -90.804688 96.429688 -98.4375 99.671875 -104.75 C 102.910156 -111.070312 104.53125 -116.394531 104.53125 -120.71875 C 104.53125 -123.488281 103.910156 -125.953125 102.671875 -128.109375 C 101.441406 -130.273438 99.441406 -131.359375 96.671875 -131.359375 C 94.816406 -131.359375 93.503906 -131.28125 92.734375 -131.125 C 91.960938 -130.96875 91.191406 -130.890625 90.421875 -130.890625 C 89.648438 -130.890625 88.570312 -130.8125 87.1875 -130.65625 C 85.800781 -130.5 83.71875 -130.421875 80.9375 -130.421875 C 76.925781 -130.421875 73.53125 -131.035156 70.75 -132.265625 C 67.976562 -133.503906 65.363281 -134.429688 62.90625 -135.046875 C 61.664062 -132.890625 58.882812 -128.265625 54.5625 -121.171875 C 50.25 -114.085938 45.238281 -105.765625 39.53125 -96.203125 C 33.832031 -86.640625 27.820312 -76.613281 21.5 -66.125 C 15.1875 -55.644531 9.253906 -45.859375 3.703125 -36.765625 C -1.847656 -27.671875 -6.550781 -19.960938 -10.40625 -13.640625 C -14.257812 -7.316406 -16.648438 -3.539062 -17.578125 -2.3125 Z M -17.578125 -2.3125" transform="translate(600.244 474.256)"/></g></g></g><g fill="#FF914D"><g><g><path d="M 78.625 -15.71875 C 88.1875 -15.71875 98.75 -19.492188 110.3125 -27.046875 C 121.875 -34.609375 133.125 -43.472656 144.0625 -53.640625 C 155.007812 -63.816406 165.03125 -74.222656 174.125 -84.859375 C 183.226562 -95.503906 190.09375 -104.066406 194.71875 -110.546875 C 197.488281 -114.546875 200.109375 -116.929688 202.578125 -117.703125 C 205.046875 -118.472656 206.894531 -118.085938 208.125 -116.546875 C 209.363281 -115.003906 209.828125 -112.613281 209.515625 -109.375 C 209.203125 -106.144531 207.816406 -102.523438 205.359375 -98.515625 C 203.191406 -94.816406 199.566406 -89.5 194.484375 -82.5625 C 189.398438 -75.625 183.390625 -68.066406 176.453125 -59.890625 C 169.515625 -51.722656 161.648438 -43.398438 152.859375 -34.921875 C 144.066406 -26.441406 134.890625 -18.734375 125.328125 -11.796875 C 115.773438 -4.859375 105.910156 0.84375 95.734375 5.3125 C 85.566406 9.789062 75.546875 12.03125 65.671875 12.03125 C 52.109375 12.03125 40.773438 9.484375 31.671875 4.390625 C 22.578125 -0.691406 15.332031 -7.238281 9.9375 -15.25 C 4.539062 -23.269531 0.765625 -32.132812 -1.390625 -41.84375 C -3.546875 -51.5625 -4.625 -61.203125 -4.625 -70.765625 C -4.625 -80.328125 -2.46875 -92.195312 1.84375 -106.375 C 6.164062 -120.5625 12.566406 -134.207031 21.046875 -147.3125 C 29.523438 -160.414062 40.238281 -171.664062 53.1875 -181.0625 C 66.132812 -190.46875 81.398438 -195.171875 98.984375 -195.171875 C 108.847656 -195.171875 117.25 -191.78125 124.1875 -185 C 131.125 -178.21875 134.4375 -168.96875 134.125 -157.25 C 134.125 -151.695312 133.195312 -146.222656 131.34375 -140.828125 C 129.5 -135.429688 127.035156 -130.648438 123.953125 -126.484375 C 120.867188 -122.328125 117.242188 -119.015625 113.078125 -116.546875 C 108.921875 -114.085938 104.375 -112.859375 99.4375 -112.859375 C 95.425781 -112.859375 92.421875 -114.320312 90.421875 -117.25 C 88.421875 -120.175781 87.1875 -123.566406 86.71875 -127.421875 C 86.257812 -131.273438 86.257812 -135.050781 86.71875 -138.75 C 87.1875 -142.445312 87.726562 -144.914062 88.34375 -146.15625 C 89.882812 -148.3125 91.578125 -149.851562 93.421875 -150.78125 C 95.273438 -151.707031 97.4375 -152.785156 99.90625 -154.015625 C 101.75 -154.941406 103.210938 -156.328125 104.296875 -158.171875 C 105.378906 -160.023438 105.921875 -162.03125 105.921875 -164.1875 C 105.921875 -166.34375 105.300781 -168.191406 104.0625 -169.734375 C 102.832031 -171.273438 100.828125 -172.046875 98.046875 -172.046875 C 95.273438 -172.046875 90.265625 -169.8125 83.015625 -165.34375 C 75.773438 -160.875 68.375 -154.242188 60.8125 -145.453125 C 53.257812 -136.671875 46.550781 -125.648438 40.6875 -112.390625 C 34.832031 -99.128906 31.753906 -83.710938 31.453125 -66.140625 C 31.140625 -55.960938 32.523438 -47.632812 35.609375 -41.15625 C 38.691406 -34.6875 42.546875 -29.597656 47.171875 -25.890625 C 51.796875 -22.191406 56.882812 -19.570312 62.4375 -18.03125 C 67.988281 -16.488281 73.382812 -15.71875 78.625 -15.71875 Z M 78.625 -15.71875" transform="translate(792.64 474.256)"/></g></g></g><g fill="#FF914D"><g><g><path d="M 237.265625 -92.046875 C 232.953125 -85.878906 227.398438 -78.242188 220.609375 -69.140625 C 213.828125 -60.046875 206.8125 -50.953125 199.5625 -41.859375 C 192.320312 -32.765625 185.234375 -24.4375 178.296875 -16.875 C 171.359375 -9.320312 165.578125 -4.003906 160.953125 -0.921875 C 157.867188 0.921875 154.320312 2.457031 150.3125 3.6875 C 146.300781 4.925781 142.210938 5.695312 138.046875 6 C 133.890625 6.3125 129.960938 6.082031 126.265625 5.3125 C 122.566406 4.539062 119.328125 3.234375 116.546875 1.390625 C 113.773438 -0.765625 111.460938 -3.847656 109.609375 -7.859375 C 108.066406 -11.253906 106.601562 -15.722656 105.21875 -21.265625 C 103.832031 -26.816406 103.296875 -33.757812 103.609375 -42.09375 C 96.203125 -29.757812 88.023438 -20.273438 79.078125 -13.640625 C 70.140625 -7.015625 61.664062 -2.160156 53.65625 0.921875 C 44.40625 4.316406 35.15625 6.320312 25.90625 6.9375 C 21.582031 6.9375 16.953125 5.472656 12.015625 2.546875 C 7.085938 -0.378906 2.929688 -5.003906 -0.453125 -11.328125 C -3.847656 -17.648438 -6.007812 -25.820312 -6.9375 -35.84375 C -7.863281 -45.863281 -6.628906 -57.8125 -3.234375 -71.6875 C 1.078125 -90.5 7.9375 -107.613281 17.34375 -123.03125 C 26.75 -138.445312 37 -151.625 48.09375 -162.5625 C 59.195312 -173.507812 70.144531 -181.757812 80.9375 -187.3125 C 91.726562 -192.863281 100.671875 -195.332031 107.765625 -194.71875 C 116.085938 -193.175781 122.867188 -190.707031 128.109375 -187.3125 C 132.429688 -184.226562 135.285156 -179.679688 136.671875 -173.671875 C 138.054688 -167.660156 135.515625 -159.722656 129.046875 -149.859375 C 133.359375 -150.773438 136.976562 -151.390625 139.90625 -151.703125 C 142.832031 -152.015625 145.066406 -152.171875 146.609375 -152.171875 C 148.460938 -152.171875 149.695312 -152.015625 150.3125 -151.703125 C 150.625 -151.085938 150.78125 -149.773438 150.78125 -147.765625 C 150.78125 -145.765625 150.316406 -142.144531 149.390625 -136.90625 C 148.460938 -131.664062 147.070312 -124.570312 145.21875 -115.625 C 143.375 -106.6875 140.910156 -95.125 137.828125 -80.9375 C 137.210938 -78.164062 136.671875 -75.625 136.203125 -73.3125 C 135.742188 -71 135.28125 -68.6875 134.8125 -66.375 C 134.351562 -64.0625 133.816406 -61.363281 133.203125 -58.28125 C 132.585938 -55.195312 131.816406 -51.34375 130.890625 -46.71875 C 130.578125 -43.9375 130.5 -40.925781 130.65625 -37.6875 C 130.8125 -34.457031 131.351562 -31.453125 132.28125 -28.671875 C 133.207031 -25.898438 134.671875 -23.664062 136.671875 -21.96875 C 138.671875 -20.269531 141.523438 -19.421875 145.234375 -19.421875 C 148.316406 -19.421875 152.320312 -21.347656 157.25 -25.203125 C 162.1875 -29.054688 167.425781 -33.988281 172.96875 -40 C 178.519531 -46.019531 184.300781 -52.648438 190.3125 -59.890625 C 196.332031 -67.140625 201.960938 -74.15625 207.203125 -80.9375 C 212.441406 -87.71875 217.140625 -93.726562 221.296875 -98.96875 C 225.460938 -104.21875 228.472656 -108.078125 230.328125 -110.546875 C 232.796875 -113.316406 235.265625 -114.929688 237.734375 -115.390625 C 240.203125 -115.859375 242.050781 -115.164062 243.28125 -113.3125 C 244.507812 -111.46875 244.738281 -108.691406 243.96875 -104.984375 C 243.195312 -101.285156 240.960938 -96.972656 237.265625 -92.046875 Z M 101.75 -71.6875 C 103.289062 -77.851562 105.140625 -85.097656 107.296875 -93.421875 C 109.460938 -101.753906 111.316406 -109.773438 112.859375 -117.484375 C 114.398438 -125.191406 115.554688 -131.585938 116.328125 -136.671875 C 117.097656 -141.753906 116.863281 -144.144531 115.625 -143.84375 C 114.082031 -143.53125 112.390625 -143.066406 110.546875 -142.453125 C 109.003906 -141.835938 107 -141.375 104.53125 -141.0625 C 102.0625 -140.757812 99.59375 -140.296875 97.125 -139.671875 C 99.59375 -144.609375 101.054688 -148.695312 101.515625 -151.9375 C 101.984375 -155.175781 102.0625 -157.71875 101.75 -159.5625 C 101.445312 -161.71875 100.832031 -163.414062 99.90625 -164.65625 C 96.507812 -167.425781 90.570312 -165.1875 82.09375 -157.9375 C 73.613281 -150.695312 63.820312 -137.363281 52.71875 -117.9375 C 48.09375 -109.925781 44.394531 -101.367188 41.625 -92.265625 C 38.851562 -83.171875 36.925781 -74.613281 35.84375 -66.59375 C 34.757812 -58.582031 34.523438 -51.566406 35.140625 -45.546875 C 35.765625 -39.535156 37 -35.609375 38.84375 -33.765625 C 42.238281 -30.367188 46.09375 -28.75 50.40625 -28.90625 C 54.726562 -29.0625 59.125 -30.296875 63.59375 -32.609375 C 68.0625 -34.921875 72.53125 -37.925781 77 -41.625 C 81.476562 -45.320312 85.488281 -49.175781 89.03125 -53.1875 C 92.582031 -57.195312 95.515625 -60.894531 97.828125 -64.28125 C 100.140625 -67.675781 101.445312 -70.144531 101.75 -71.6875 Z M 101.75 -71.6875" transform="translate(964.686 474.256)"/></g></g></g><g fill="#FF914D"><g><g><path d="M -17.578125 -2.3125 C -19.734375 1.082031 -22.117188 3.316406 -24.734375 4.390625 C -27.359375 5.472656 -29.671875 5.628906 -31.671875 4.859375 C -33.679688 4.085938 -34.992188 2.46875 -35.609375 0 C -36.222656 -2.46875 -35.609375 -5.550781 -33.765625 -9.25 C -32.835938 -11.101562 -30.753906 -15.265625 -27.515625 -21.734375 C -24.273438 -28.210938 -20.421875 -36 -15.953125 -45.09375 C -11.484375 -54.1875 -6.628906 -64.050781 -1.390625 -74.6875 C 3.847656 -85.332031 8.859375 -95.429688 13.640625 -104.984375 C 18.421875 -114.546875 22.816406 -123.101562 26.828125 -130.65625 C 30.835938 -138.207031 33.765625 -143.679688 35.609375 -147.078125 C 32.222656 -150.160156 29.910156 -152.394531 28.671875 -153.78125 C 27.441406 -155.164062 26.519531 -158.171875 25.90625 -162.796875 C 25.28125 -166.804688 26.203125 -172.046875 28.671875 -178.515625 C 31.140625 -184.992188 34.378906 -191.238281 38.390625 -197.25 C 42.398438 -203.269531 46.867188 -208.4375 51.796875 -212.75 C 56.734375 -217.070312 61.515625 -219.234375 66.140625 -219.234375 C 74.773438 -219.234375 80.863281 -216.457031 84.40625 -210.90625 C 87.957031 -205.351562 90.039062 -199.648438 90.65625 -193.796875 C 91.269531 -189.785156 90.957031 -184.695312 89.71875 -178.53125 C 88.488281 -172.363281 86.179688 -166.8125 82.796875 -161.875 C 83.710938 -161.257812 84.941406 -160.566406 86.484375 -159.796875 C 88.023438 -159.023438 90.492188 -158.640625 93.890625 -158.640625 C 98.828125 -158.640625 102.296875 -158.945312 104.296875 -159.5625 C 106.296875 -160.175781 109.457031 -160.484375 113.78125 -160.484375 C 119.019531 -160.484375 123.332031 -159.171875 126.71875 -156.546875 C 130.113281 -153.929688 132.890625 -150.695312 135.046875 -146.84375 C 137.210938 -142.988281 138.832031 -138.828125 139.90625 -134.359375 C 140.988281 -129.890625 141.679688 -125.804688 141.984375 -122.109375 C 142.910156 -114.398438 140.90625 -106.378906 135.96875 -98.046875 C 131.039062 -89.722656 125.03125 -80.628906 117.9375 -70.765625 C 113.625 -64.597656 109.304688 -57.660156 104.984375 -49.953125 C 100.671875 -42.242188 98.820312 -35.304688 99.4375 -29.140625 C 100.050781 -25.128906 101.128906 -21.890625 102.671875 -19.421875 C 104.210938 -16.953125 108.53125 -15.71875 115.625 -15.71875 C 120.863281 -15.71875 126.644531 -17.644531 132.96875 -21.5 C 139.289062 -25.351562 145.765625 -30.285156 152.390625 -36.296875 C 159.023438 -42.316406 165.578125 -48.945312 172.046875 -56.1875 C 178.523438 -63.4375 184.539062 -70.53125 190.09375 -77.46875 C 195.644531 -84.40625 200.347656 -90.648438 204.203125 -96.203125 C 208.054688 -101.753906 210.90625 -105.765625 212.75 -108.234375 C 214.289062 -110.691406 216.296875 -112.382812 218.765625 -113.3125 C 221.234375 -114.238281 223.390625 -114.238281 225.234375 -113.3125 C 227.085938 -112.382812 228.242188 -110.535156 228.703125 -107.765625 C 229.171875 -104.992188 228.015625 -101.296875 225.234375 -96.671875 C 223.390625 -93.585938 220.226562 -88.648438 215.75 -81.859375 C 211.28125 -75.078125 205.882812 -67.523438 199.5625 -59.203125 C 193.25 -50.878906 186.238281 -42.320312 178.53125 -33.53125 C 170.820312 -24.738281 162.726562 -16.71875 154.25 -9.46875 C 145.769531 -2.226562 137.289062 3.703125 128.8125 8.328125 C 120.332031 12.953125 112.238281 15.265625 104.53125 15.265625 C 96.507812 15.265625 89.878906 13.722656 84.640625 10.640625 C 79.398438 7.554688 75.160156 3.78125 71.921875 -0.6875 C 68.679688 -5.164062 66.367188 -10.101562 64.984375 -15.5 C 63.597656 -20.894531 63.054688 -25.90625 63.359375 -30.53125 C 63.671875 -34.226562 64.671875 -38.15625 66.359375 -42.3125 C 68.054688 -46.476562 70.0625 -50.796875 72.375 -55.265625 C 74.6875 -59.734375 77.15625 -64.203125 79.78125 -68.671875 C 82.40625 -73.148438 84.796875 -77.546875 86.953125 -81.859375 C 92.191406 -90.804688 96.429688 -98.4375 99.671875 -104.75 C 102.910156 -111.070312 104.53125 -116.394531 104.53125 -120.71875 C 104.53125 -123.488281 103.910156 -125.953125 102.671875 -128.109375 C 101.441406 -130.273438 99.441406 -131.359375 96.671875 -131.359375 C 94.816406 -131.359375 93.503906 -131.28125 92.734375 -131.125 C 91.960938 -130.96875 91.191406 -130.890625 90.421875 -130.890625 C 89.648438 -130.890625 88.570312 -130.8125 87.1875 -130.65625 C 85.800781 -130.5 83.71875 -130.421875 80.9375 -130.421875 C 76.925781 -130.421875 73.53125 -131.035156 70.75 -132.265625 C 67.976562 -133.503906 65.363281 -134.429688 62.90625 -135.046875 C 61.664062 -132.890625 58.882812 -128.265625 54.5625 -121.171875 C 50.25 -114.085938 45.238281 -105.765625 39.53125 -96.203125 C 33.832031 -86.640625 27.820312 -76.613281 21.5 -66.125 C 15.1875 -55.644531 9.253906 -45.859375 3.703125 -36.765625 C -1.847656 -27.671875 -6.550781 -19.960938 -10.40625 -13.640625 C -14.257812 -7.316406 -16.648438 -3.539062 -17.578125 -2.3125 Z M -17.578125 -2.3125" transform="translate(1170.956 474.256)"/></g></g></g></svg>